<svg height="480pt" viewBox="0 0 480 480" width="480pt" xmlns="http://www.w3.org/2000/svg"><path d="m8 72h464v240h-464zm0 0" fill="#5aaae7"/><path d="m472 72v240h-464c209.953125-26.503906 369.542969-101.734375 464-240zm0 0" fill="#3d9ae2"/><path d="m328 440c8.824219.027344 15.972656 7.175781 16 16-.066406 8.808594-7.191406 15.933594-16 16h-176c-8.824219-.027344-15.972656-7.175781-16-16 .066406-8.808594 7.191406-15.933594 16-16zm0 0" fill="#787680"/><path d="m304 440h-128l8-64h112zm0 0" fill="#898890"/><path d="m472 312v32c-.050781 17.652344-14.347656 31.949219-32 32h-400c-17.652344-.050781-31.949219-14.347656-32-32v-32zm0 0" fill="#c6c5ca"/><path d="m472 40v32h-464v-32c.050781-17.652344 14.347656-31.949219 32-32h400c17.671875 0 32 14.328125 32 32zm0 0" fill="#ff5023"/><path d="m298 392h-116l2-16h112zm0 0" fill="#787680"/><path d="m112 104h256v112h-256zm0 0" fill="#ffd422"/><path d="m200 264c0 8.835938-7.164062 16-16 16s-16-7.164062-16-16 7.164062-16 16-16 16 7.164062 16 16zm0 0" fill="#ffd422"/><path d="m272 160-48 24v-48zm0 0" fill="#ff5023"/><path d="m275.574219 152.839844-48-24c-2.480469-1.238282-5.425781-1.105469-7.78125.351562-2.359375 1.460938-3.792969 4.035156-3.792969 6.808594v48c0 2.773438 1.433594 5.347656 3.792969 6.808594 2.355469 1.457031 5.300781 1.589844 7.78125.351562l48-24c2.71875-1.351562 4.433593-4.125 4.433593-7.160156s-1.714843-5.808594-4.433593-7.160156zm-43.574219 18.214844v-22.109376l22.113281 11.054688zm0 0"/><path d="m112 224h256c4.417969 0 8-3.582031 8-8v-112c0-4.417969-3.582031-8-8-8h-256c-4.417969 0-8 3.582031-8 8v112c0 4.417969 3.582031 8 8 8zm8-112h240v96h-240zm0 0"/><path d="m184 240c-10.132812.042969-19.148438 6.445312-22.527344 16h-41.472656v16h41.472656c3.339844 9.585938 12.378906 16.007812 22.527344 16.007812s19.1875-6.421874 22.527344-16.007812h153.472656v-16h-153.472656c-3.378906-9.554688-12.394532-15.957031-22.527344-16zm0 32c-4.417969 0-8-3.582031-8-8s3.582031-8 8-8 8 3.582031 8 8-3.582031 8-8 8zm0 0"/><path d="m440 0h-400c-22.082031.0273438-39.9726562 17.917969-40 40v304c.0273438 22.082031 17.917969 39.972656 40 40h134.9375l-6 48h-16.9375c-13.253906 0-24 10.746094-24 24s10.746094 24 24 24h176c13.253906 0 24-10.746094 24-24s-10.746094-24-24-24h-16.9375l-6-48h134.9375c22.082031-.027344 39.972656-17.917969 40-40v-304c-.027344-22.082031-17.917969-39.9726562-40-40zm-400 16h400c13.253906 0 24 10.746094 24 24v24h-448v-24c0-13.253906 10.746094-24 24-24zm424 64v224h-448v-224zm-128 376c0 4.417969-3.582031 8-8 8h-176c-4.417969 0-8-3.582031-8-8s3.582031-8 8-8h176c4.417969 0 8 3.582031 8 8zm-41.0625-24h-109.875l6-48h97.875zm145.0625-64h-400c-13.253906 0-24-10.746094-24-24v-24h448v24c0 13.253906-10.746094 24-24 24zm0 0"/><path d="m416 336h16v16h-16zm0 0"/><path d="m48 32h16v16h-16zm0 0"/><path d="m80 32h16v16h-16zm0 0"/><path d="m112 32h16v16h-16zm0 0"/></svg>