<svg id="color" enable-background="new 0 0 24 24" height="512" viewBox="0 0 24 24" width="512" xmlns="http://www.w3.org/2000/svg"><path d="m15.854 23.146c-1.313-1.313-1.353-2.586-1.354-2.649-.002-.275-.225-.497-.5-.497h-4.02c-.276 0-.5.227-.5.503 0 .054-.018 1.328-1.334 2.644-.143.143-.186.358-.108.545.077.186.26.308.462.308h7c.202 0 .385-.122.462-.309s.034-.401-.108-.545z" fill="#90a4ae"/><path d="m24 5.75v13.5c0 .96-.79 1.75-1.75 1.75h-20.5c-.96 0-1.75-.79-1.75-1.75v-13.5c0-.96.79-1.75 1.75-1.75h1.25v2h-1v11h20v-11h-1v-2h1.25c.96 0 1.75.79 1.75 1.75z" fill="#607d8b"/><path d="m22 6v11h-20v-11h1v5.25c0 1.52 1.23 2.75 2.75 2.75h12.5c1.52 0 2.75-1.23 2.75-2.75v-5.25z" fill="#fff"/><path d="m12 21h-2.591c-.118.501-.431 1.315-1.263 2.146-.143.143-.186.358-.108.545.077.187.26.309.462.309h3.5z" fill="#7d8f97"/><path d="m3 4h-1.25c-.96 0-1.75.79-1.75 1.75v13.5c0 .96.79 1.75 1.75 1.75h7.659 2.591v-4h-10v-11h1z" fill="#546d79"/><path d="m3 6h-1v11h10v-3h-6.25c-1.52 0-2.75-1.23-2.75-2.75z" fill="#dedede"/><path d="m9 4h-3c-.552 0-1-.448-1-1v-2c0-.552.448-1 1-1h3z" fill="#64b5f6"/><path d="m9 8h-3c-.552 0-1-.448-1-1v-2c0-.552.448-1 1-1h3z" fill="#2196f3"/><path d="m9 12h-3c-.552 0-1-.448-1-1v-2c0-.552.448-1 1-1h3z" fill="#64b5f6"/><path d="m18 4h-9v-4h9c.553 0 1 .448 1 1v2c0 .552-.447 1-1 1z" fill="#2196f3"/><path d="m18 8h-9v-4h9c.553 0 1 .448 1 1v2c0 .552-.447 1-1 1z" fill="#64b5f6"/><path d="m18 12h-9v-4h9c.553 0 1 .448 1 1v2c0 .552-.447 1-1 1z" fill="#2196f3"/><path d="m14 0h-5v4h5z" fill="#1d83d4"/><path d="m14 4h-5v4h5z" fill="#579ed6"/><path d="m14 8h-5v4h5z" fill="#1d83d4"/></svg>