<svg height="512" viewBox="0 0 60 54" width="512" xmlns="http://www.w3.org/2000/svg"><g id="Page-1" fill="none" fill-rule="evenodd"><g id="016---Certificate" fill-rule="nonzero"><path id="Shape" d="m58.12 46.12c-.5616324.5634227-1.3244649.8800702-2.12.88h-53c-.53059053.0028231-1.0395388-.2101411-1.41-.59l4.41-4.41h48z" fill="#ff9801"/><path id="Shape" d="m59 3v41c.0000702.7955351-.3165773 1.5583676-.88 2.12l-4.12-4.12v-36l4.41-4.41c.3798589.3704612.5928231.87940947.59 1.41z" fill="#ff5722"/><path id="Shape" d="m58.41 1.59-2.41 2.41v40l2.12 2.12c.5634227-.5616324.8800702-1.3244649.88-2.12v-41c.0028231-.53059053-.2101411-1.0395388-.59-1.41z" fill="#d84315"/><path id="Shape" d="m58.41 1.59-4.41 4.41h-48l-4.41-4.41c.3704612-.3798589.87940947-.59282307 1.41-.59h54c.5305905-.00282307 1.0395388.2101411 1.41.59z" fill="#ff9801"/><path id="Shape" d="m6 6v36l-4.41 4.41c-.3798589-.3704612-.59282307-.8794095-.59-1.41v-42c-.00282307-.53059053.2101411-1.0395388.59-1.41z" fill="#ff5722"/><path id="Rectangle-path" d="m6 6h48v36h-48z" fill="#ffdc00"/><path id="Rectangle-path" d="m51 6h3v36h-3z" fill="#fec108"/><path id="Shape" d="m50 31.5c0 1.15-2.15 1.87-2.57 2.87-.43 1.04.57 3.06-.21 3.85-.46.46-1.36.3-2.22.18-.537697-.1226194-1.0971793-.1123222-1.63.03-1 .42-1.72 2.57-2.87 2.57s-1.87-2.15-2.87-2.57c-.5328207-.1423222-1.092303-.1526194-1.63-.03-.86.12-1.76.28-2.22-.18-.78-.79.22-2.81-.21-3.85-.42-1-2.57-1.72-2.57-2.87s2.15-1.87 2.57-2.87c.43-1.04-.57-3.06.21-3.85s2.81.22 3.85-.21c1-.42 1.72-2.57 2.87-2.57s1.87 2.15 2.87 2.57c1.04.43 3.06-.57 3.85.21s-.22 2.81.21 3.85c.42 1 2.57 1.72 2.57 2.87z" fill="#02a9f4"/><path id="Shape" d="m40.37 24.57c.728.3 1.929-.09 2.86-.089-.93-.55-1.63-2.481-2.73-2.481-.579 0-1.049.545-1.5 1.139.3421745.5747698.8106718 1.0641272 1.37 1.431z" fill="#0377bc"/><path id="Shape" d="m47.43 28.63c-.43-1.04.57-3.06-.21-3.85-.643-.635-2.094-.1-3.175-.108.0624113.02893.1211578.065185.175.108.78.79-.22 2.81.21 3.85.42 1 2.57 1.72 2.57 2.87s-2.15 1.87-2.57 2.87c-.43 1.04.57 3.06-.21 3.85-.0406727.0375115-.0848786.0710008-.132.1.3052856.0091039.6097917.035815.912.08.86.12 1.76.28 2.22-.18.78-.79-.22-2.81.21-3.85.42-1 2.57-1.72 2.57-2.87s-2.15-1.87-2.57-2.87z" fill="#0377bc"/><path id="Shape" d="m42 38.4c-.537697-.1226194-1.0971793-.1123222-1.63.03-.5593282.3668728-1.0278255.8562302-1.37 1.431.451.594.921 1.139 1.5 1.139 1.09 0 1.8-1.915 2.719-2.474-.4085998-.0160279-.8157605-.0581134-1.219-.126z" fill="#0377bc"/><circle id="Oval" cx="40.5" cy="31.5" fill="#3f51b5" r="3.5"/><path id="Shape" d="m45 38.4v12.98c.002433.3483719-.1766148.672901-.4726128.8566239-.2959979.1837229-.6662778.2001558-.9773872.0433761l-2.6-1.31c-.2836743-.1399671-.6163257-.1399671-.9 0l-2.6 1.31c-.3111094.1567797-.6813893.1403468-.9773872-.0433761-.295998-.1837229-.4750458-.508252-.4726128-.8566239v-12.98c.537697-.1226194 1.0971793-.1123222 1.63.03 1 .42 1.72 2.57 2.87 2.57s1.87-2.15 2.87-2.57c.5328207-.1423222 1.092303-.1526194 1.63-.03z" fill="#f44335"/><path id="Shape" d="m43.37 38.43c-.5593282.3668728-1.0278255.8562302-1.37 1.431v11.519c-.0024713.0376286-.0074827.0750472-.015.112l1.565.788c.3111094.1567797.6813893.1403468.9773872-.0433761.295998-.1837229.4750458-.508252.4726128-.8566239v-12.98c-.537697-.1226194-1.0971793-.1123222-1.63.03z" fill="#c81e1e"/><path id="Shape" d="m27 31c-2.4486412.0000373-4.8558796-.6316518-6.989-1.834-2.1367022 1.2131934-4.5539282 1.845513-7.011 1.834-.5522847 0-1-.4477153-1-1s.4477153-1 1-1c1.7924261.0079437 3.5643041-.3817465 5.188-1.141-1.03788-.7956355-1.7017283-1.9840506-1.835-3.285 0-.6.263-2.574 3.647-2.574s3.647 1.97 3.647 2.574c-.1325892 1.3025808-.7959802 2.4929952-1.834 3.291 1.6242807.7558114 3.3955011 1.1433832 5.187 1.135.5522847 0 1 .4477153 1 1s-.4477153 1-1 1zm-7-7c-.76 0-1.647.15-1.647.574s.449 1.278 1.639 2.194c1.064-.814 1.655-1.665 1.655-2.194 0-.424-.887-.574-1.647-.574z" fill="#3f51b5"/><g fill="#000"><path id="Shape" d="m57 0h-54c-1.65685425 0-3 1.34314575-3 3v42c0 1.6568542 1.34314575 3 3 3h29c.5522847 0 1-.4477153 1-1s-.4477153-1-1-1h-28.586l3-3h25.586c.5522847 0 1-.4477153 1-1s-.4477153-1-1-1h-25v-34h6c.5522847 0 1-.44771525 1-1s-.4477153-1-1-1h-6.586l-3-3h53.172l-3 3h-35.586c-.5522847 0-1 .44771525-1 1s.4477153 1 1 1h35v34h-4c-.5522847 0-1 .4477153-1 1s.4477153 1 1 1h4.586l2.925 2.925c-.1663402.0471473-.3381273.0723606-.511.075h-7c-.5522847 0-1 .4477153-1 1s.4477153 1 1 1h7c2.209139 0 4-1.790861 4-4v-41c0-1.65685425-1.3431458-3-3-3zm-52 41.586-3 3v-41.172l3 3zm52.925 2.925-2.925-2.925v-35.172l3-3v40.586c-.0025706.1728782-.0277853.3446742-.075.511z"/><path id="Shape" d="m37 13c.5522847 0 1-.4477153 1-1s-.4477153-1-1-1h-14c-.5522847 0-1 .4477153-1 1s.4477153 1 1 1z"/><path id="Shape" d="m13 33c-.5522847 0-1 .4477153-1 1s.4477153 1 1 1h14c.5522847 0 1-.4477153 1-1s-.4477153-1-1-1z"/><path id="Shape" d="m41 17c0-.5522847-.4477153-1-1-1h-20c-.5522847 0-1 .4477153-1 1s.4477153 1 1 1h20c.5522847 0 1-.4477153 1-1z"/><path id="Shape" d="m33.075 38.924c.5254746.4671785 1.2277287.6835092 1.925.593v11.863c-.0024165.6954998.3566609 1.3423149.948228 1.7080666.591567.3657516 1.3306692.3979144 1.951772.0849334l2.6-1.31 2.607 1.314c.622186.3095835 1.3604767.2739941 1.95-.094.5888972-.3652435.9459394-1.0100396.943-1.703v-11.863c.6976021.0908093 1.4002843-.1255409 1.926-.593.785-.786.62-1.965.487-2.912-.0879268-.4136872-.1075194-.8389808-.058-1.259.2548642-.3065947.5545785-.5729325.889-.79.782-.585 1.756-1.313 1.756-2.463s-.974-1.878-1.756-2.462c-.3347174-.217077-.6344774-.4837926-.889-.791-.0496075-.419726-.0296735-.8447594.059-1.258.132-.948.3-2.127-.489-2.913s-1.968-.622-2.914-.49c-.4128406.0891483-.8376241.1090864-1.257.059-.3080544-.2539367-.5751826-.5537813-.792-.889-.584-.782-1.312-1.756-2.462-1.756s-1.878.974-2.463 1.756c-.2159167.3352968-.4824009.6351758-.79.889-.4197605.0486156-.8446321.0286892-1.258-.059-.948-.132-2.127-.3-2.915.49s-.62 1.965-.487 2.912c.0879268.4136872.1075194.8389808.058 1.259-.2548642.3065947-.5545785.5729325-.889.79-.782.585-1.756 1.313-1.756 2.463s.974 1.878 1.756 2.462c.3347174.217077.6344774.4837926.889.791.0496075.419726.0296735.8447594-.059 1.258-.132.948-.297 2.127.489 2.913zm8.325 11.152c-.5667311-.2825692-1.2332689-.2825692-1.8 0l-2.6 1.304v-12.06c.0833584-.0017994.1664513.0100227.246.035.3080544.2539367.5751826.5537813.792.889.584.782 1.312 1.756 2.462 1.756s1.878-.974 2.463-1.756c.2159167-.3352968.4824009-.6351758.79-.889.0798394-.0253017.1632601-.0374602.247-.0361175v12.0681175zm-9.4-18.562c.051-.2.639-.639.954-.875.6483965-.3955853 1.1796316-.9568512 1.539-1.626.2281153-.7465176.2539965-1.5402071.075-2.3-.0737799-.3955955-.1072844-.7976491-.1-1.2.4163271-.0503043.8381331-.0307011 1.248.058.7597717.178651 1.5532836.1531206 2.3-.074.6692029-.3596581 1.2307245-.8908085 1.627-1.539.2303759-.360549.5146802-.6836374.843-.958.2.051.638.638.874.954.3963369.6487512.9582474 1.1802882 1.628 1.54.7466144.2277373 1.5402905.253273 2.3.074.3955427-.0741719.7976363-.1076797 1.2-.1.0503236.4159933.0307199.8374738-.058 1.247-.1788526.7598073-.1529726 1.5534588.075 2.3.3587244.6701397.890064 1.2322066 1.539 1.628.3618068.2324714.6827832.5230395.95.86-.2671611.3372921-.5881376.6281982-.95.861-.6483965.3955853-1.1796316.9568512-1.539 1.626-.2281153.7465176-.2539965 1.5402071-.075 2.3.0737799.3955955.1072844.7976491.1 1.2-.4163271.0503043-.8381331.0307011-1.248-.058-.7597191-.1791771-1.5533698-.1536422-2.3.074-.6692029.3596581-1.2307245.8908085-1.627 1.539-.2315343.3597-.516849.6817751-.846.955-.2-.051-.638-.638-.874-.954-.3963369-.6487512-.9582474-1.1802882-1.628-1.54-.3413301-.1332308-.7056873-.1974691-1.072-.189-.4111546.0101272-.8211241.0485514-1.227.115-.3955483.0741303-.7976377.1076377-1.2.1-.0503048-.415994-.0307012-.8374714.058-1.247.1788526-.7598073.1529726-1.5534588-.075-2.3-.3587244-.6701397-.890064-1.2322066-1.539-1.628-.358525-.2307299-.6795831-.5150282-.952-.843z"/><path id="Shape" d="m40.5 36c2.4852814 0 4.5-2.0147186 4.5-4.5s-2.0147186-4.5-4.5-4.5-4.5 2.0147186-4.5 4.5c.0027556 2.4841391 2.0158609 4.4972444 4.5 4.5zm0-7c1.3807119 0 2.5 1.1192881 2.5 2.5s-1.1192881 2.5-2.5 2.5-2.5-1.1192881-2.5-2.5 1.1192881-2.5 2.5-2.5z"/></g></g></g></svg>